<svg width="37" height="55" viewBox="0 0 37 55" fill="none" xmlns="http://www.w3.org/2000/svg">
<path d="M5.78613 53V45.8418H8.95996C9.59798 45.8418 10.083 45.9069 10.415 46.0371C10.7471 46.1641 11.0124 46.3903 11.2109 46.7158C11.4095 47.0413 11.5088 47.401 11.5088 47.7949C11.5088 48.3027 11.3444 48.7308 11.0156 49.0791C10.6868 49.4274 10.179 49.6488 9.49219 49.7432C9.74284 49.8636 9.93327 49.9824 10.0635 50.0996C10.3402 50.3535 10.6022 50.6709 10.8496 51.0518L12.0947 53H10.9033L9.95605 51.5107C9.67936 51.0811 9.4515 50.7523 9.27246 50.5244C9.09342 50.2965 8.93229 50.137 8.78906 50.0459C8.64909 49.9548 8.50586 49.8913 8.35938 49.8555C8.25195 49.8327 8.07617 49.8213 7.83203 49.8213H6.7334V53H5.78613ZM6.7334 49.001H8.76953C9.20247 49.001 9.54102 48.957 9.78516 48.8691C10.0293 48.778 10.2148 48.6348 10.3418 48.4395C10.4688 48.2409 10.5322 48.026 10.5322 47.7949C10.5322 47.4564 10.4085 47.1781 10.1611 46.96C9.91699 46.7419 9.52962 46.6328 8.99902 46.6328H6.7334V49.001ZM12.5586 50.4072C12.5586 49.4469 12.8255 48.7357 13.3594 48.2734C13.8053 47.8893 14.349 47.6973 14.9902 47.6973C15.7031 47.6973 16.2858 47.9316 16.7383 48.4004C17.1908 48.8659 17.417 49.5104 17.417 50.334C17.417 51.0013 17.3161 51.527 17.1143 51.9111C16.9157 52.292 16.6243 52.5882 16.2402 52.7998C15.8594 53.0114 15.4427 53.1172 14.9902 53.1172C14.2643 53.1172 13.6768 52.8844 13.2275 52.4189C12.7816 51.9535 12.5586 51.2829 12.5586 50.4072ZM13.4619 50.4072C13.4619 51.0713 13.6068 51.5693 13.8965 51.9014C14.1862 52.2301 14.5508 52.3945 14.9902 52.3945C15.4264 52.3945 15.7894 52.2285 16.0791 51.8965C16.3688 51.5645 16.5137 51.0583 16.5137 50.3779C16.5137 49.7367 16.3672 49.2516 16.0742 48.9229C15.7845 48.5908 15.4232 48.4248 14.9902 48.4248C14.5508 48.4248 14.1862 48.5892 13.8965 48.918C13.6068 49.2467 13.4619 49.7432 13.4619 50.4072ZM20.3711 52.2139L20.498 52.9902C20.2507 53.0423 20.0293 53.0684 19.834 53.0684C19.515 53.0684 19.2676 53.0179 19.0918 52.917C18.916 52.8161 18.7923 52.6842 18.7207 52.5215C18.6491 52.3555 18.6133 52.0088 18.6133 51.4814V48.498H17.9688V47.8145H18.6133V46.5303L19.4873 46.0029V47.8145H20.3711V48.498H19.4873V51.5303C19.4873 51.7809 19.502 51.9421 19.5312 52.0137C19.5638 52.0853 19.6143 52.1423 19.6826 52.1846C19.7542 52.2269 19.8551 52.248 19.9854 52.248C20.083 52.248 20.2116 52.2367 20.3711 52.2139ZM24.6191 52.3604C24.2936 52.637 23.9795 52.8324 23.6768 52.9463C23.3773 53.0602 23.055 53.1172 22.71 53.1172C22.1403 53.1172 21.7025 52.9788 21.3965 52.7021C21.0905 52.4222 20.9375 52.0658 20.9375 51.6328C20.9375 51.3789 20.9945 51.1478 21.1084 50.9395C21.2256 50.7279 21.377 50.5586 21.5625 50.4316C21.7513 50.3047 21.9629 50.2087 22.1973 50.1436C22.3698 50.098 22.6302 50.054 22.9785 50.0117C23.6882 49.9271 24.2106 49.8262 24.5459 49.709C24.5492 49.5885 24.5508 49.512 24.5508 49.4795C24.5508 49.1214 24.4678 48.8691 24.3018 48.7227C24.0771 48.5241 23.7435 48.4248 23.3008 48.4248C22.8874 48.4248 22.5814 48.498 22.3828 48.6445C22.1875 48.7878 22.0426 49.0433 21.9482 49.4111L21.0889 49.2939C21.167 48.9261 21.2956 48.6299 21.4746 48.4053C21.6536 48.1774 21.9124 48.0033 22.251 47.8828C22.5895 47.7591 22.9818 47.6973 23.4277 47.6973C23.8704 47.6973 24.2301 47.7493 24.5068 47.8535C24.7835 47.9577 24.987 48.0895 25.1172 48.249C25.2474 48.4053 25.3385 48.6038 25.3906 48.8447C25.4199 48.9945 25.4346 49.2646 25.4346 49.6553V50.8271C25.4346 51.6442 25.4525 52.1618 25.4883 52.3799C25.5273 52.5947 25.6022 52.8014 25.7129 53H24.7949C24.7038 52.8177 24.6452 52.6045 24.6191 52.3604ZM24.5459 50.3975C24.2269 50.5277 23.7484 50.6383 23.1104 50.7295C22.749 50.7816 22.4935 50.8402 22.3438 50.9053C22.194 50.9704 22.0785 51.0664 21.9971 51.1934C21.9157 51.3171 21.875 51.4554 21.875 51.6084C21.875 51.8428 21.9629 52.0381 22.1387 52.1943C22.3177 52.3506 22.5781 52.4287 22.9199 52.4287C23.2585 52.4287 23.5596 52.3555 23.8232 52.209C24.0869 52.0592 24.2806 51.8558 24.4043 51.5986C24.4987 51.4001 24.5459 51.1071 24.5459 50.7197V50.3975ZM26.4502 51.4521L27.3193 51.3154C27.3682 51.6637 27.5033 51.9307 27.7246 52.1162C27.9492 52.3018 28.2617 52.3945 28.6621 52.3945C29.0658 52.3945 29.3652 52.3132 29.5605 52.1504C29.7559 51.9844 29.8535 51.7907 29.8535 51.5693C29.8535 51.3708 29.7673 51.2145 29.5947 51.1006C29.4743 51.0225 29.1748 50.9232 28.6963 50.8027C28.0518 50.64 27.6042 50.5 27.3535 50.3828C27.1061 50.2624 26.9173 50.098 26.7871 49.8896C26.6602 49.6781 26.5967 49.4453 26.5967 49.1914C26.5967 48.9603 26.6488 48.7471 26.7529 48.5518C26.8604 48.3532 27.0052 48.1888 27.1875 48.0586C27.3242 47.9577 27.5098 47.873 27.7441 47.8047C27.9818 47.7331 28.2357 47.6973 28.5059 47.6973C28.9128 47.6973 29.2692 47.7559 29.5752 47.873C29.8844 47.9902 30.1123 48.1497 30.2588 48.3516C30.4053 48.5501 30.5062 48.8171 30.5615 49.1523L29.7021 49.2695C29.6631 49.0026 29.5492 48.7943 29.3604 48.6445C29.1748 48.4948 28.9111 48.4199 28.5693 48.4199C28.1657 48.4199 27.8776 48.4867 27.7051 48.6201C27.5326 48.7536 27.4463 48.9098 27.4463 49.0889C27.4463 49.2028 27.4821 49.3053 27.5537 49.3965C27.6253 49.4909 27.7376 49.569 27.8906 49.6309C27.9785 49.6634 28.2373 49.7383 28.667 49.8555C29.2887 50.0215 29.7217 50.1582 29.9658 50.2656C30.2132 50.3698 30.4069 50.5228 30.5469 50.7246C30.6868 50.9264 30.7568 51.1771 30.7568 51.4766C30.7568 51.7695 30.6706 52.0462 30.498 52.3066C30.3288 52.5638 30.083 52.764 29.7607 52.9072C29.4385 53.0472 29.0739 53.1172 28.667 53.1172C27.9932 53.1172 27.4788 52.9772 27.124 52.6973C26.7725 52.4173 26.5479 52.0023 26.4502 51.4521Z" fill="#003C71"/>
<circle cx="18.5" cy="18.5" r="18" fill="#003C71" stroke="#003C71"/>
<rect x="9.95711" y="18.5" width="12.0815" height="12.0815" rx="2.5" transform="rotate(-45 9.95711 18.5)" fill="white" stroke="#003C71"/>
<path d="M17.2303 21.2206H15.7793V18.5938V18.5688C15.7793 18.1681 16.1041 17.8433 16.5048 17.8433H19.7695V15.7794L22.3087 18.4062L19.7695 21.2206V19.1567H17.2303V21.2206Z" fill="#003C71"/>
</svg>
