<svg width="52" height="69" viewBox="0 0 52 69" fill="none" xmlns="http://www.w3.org/2000/svg">
<path d="M26 69C26 69 52 40.9688 52 25.875C52 11.5898 40.3542 0 26 0C11.6458 0 0 11.5898 0 25.875C0 40.9688 26 69 26 69ZM26 17.25C28.2985 17.25 30.5029 18.1587 32.1283 19.7762C33.7536 21.3937 34.6667 23.5875 34.6667 25.875C34.6667 28.1625 33.7536 30.3563 32.1283 31.9738C30.5029 33.5913 28.2985 34.5 26 34.5C23.7015 34.5 21.4971 33.5913 19.8717 31.9738C18.2464 30.3563 17.3333 28.1625 17.3333 25.875C17.3333 23.5875 18.2464 21.3937 19.8717 19.7762C21.4971 18.1587 23.7015 17.25 26 17.25Z" fill="#003C71"/>
<ellipse cx="26" cy="26.0164" rx="19.8095" ry="20.3607" fill="white"/>
<path d="M33.5471 39.4485C33.5471 39.4485 37.2961 37.2114 32.3299 33.1215C27.3637 29.0316 17.141 23.2207 14.9992 20.6795C12.8574 18.1384 13.782 14.3534 13.782 14.3534C13.782 14.3534 13.7331 17.7102 21.62 23.3064C29.5069 28.9026 35.2017 32.5175 35.4949 35.9627C35.7881 39.4079 33.5471 39.4485 33.5471 39.4485Z" fill="#003C71"/>
<path d="M36.5381 37.7396C36.5381 37.7396 39.0698 34.8984 34.1036 30.8085C29.1374 26.7186 19.354 20.3921 17.1629 18.2384C14.9718 16.0848 15.8406 11.2368 15.8406 11.2368C15.8406 11.2368 15.7067 14.8816 23.4431 20.7358C31.1795 26.5901 37.4148 30.5938 37.708 34.0368C38.0012 37.4798 36.5406 37.7374 36.5406 37.7374L36.5381 37.7396Z" fill="#003C71"/>
<path d="M38.6824 34.9846C38.6824 34.9846 39.753 32.3582 36.8812 29.2165C34.0094 26.0749 22.633 18.8742 20.0846 16.4745C17.5363 14.0749 18.4755 9.54346 18.4755 9.54346C18.4755 9.54346 19.2085 13.4615 26.122 18.5826C33.0355 23.7038 38.3423 28.3549 39.1202 31.3246C39.8982 34.2944 38.6829 34.9855 38.6829 34.9855L38.6824 34.9846Z" fill="#003C71"/>
<path d="M16.0901 22.3716C16.0901 22.3716 12.001 30.7005 17.4138 36.1248C22.8267 41.5491 28.475 38.4427 28.475 38.4427L32.5944 40.0731C30.3586 40.7006 28.0185 40.96 25.6834 40.8392C22.1308 40.5812 17.5326 38.6753 15.4275 35.0801C11.6164 28.5718 16.0901 22.3716 16.0901 22.3716Z" fill="#003C71"/>
</svg>
