<svg width="200" height="60" viewBox="0 0 230 81" fill="none" xmlns="http://www.w3.org/2000/svg">
<path d="M185.127 1.39598C186.393 1.11888 187.687 0.982047 188.983 0.987978C191.078 0.987978 192.425 1.50298 193.337 2.56798C194.117 3.54812 194.521 4.77509 194.475 6.02698C194.537 6.99293 194.305 7.95498 193.808 8.78597C193.312 9.61695 192.575 10.2777 191.695 10.681V10.76C192.776 11.275 193.456 12.611 193.813 14.327C194.086 16.0755 194.474 17.8042 194.974 19.502H193.026C192.589 18.0761 192.263 16.6183 192.052 15.142C191.593 12.642 190.789 11.654 189.063 11.542H186.991V19.496H185.121V1.38799L185.127 1.39598ZM186.995 9.70198H189.237C189.69 9.73315 190.144 9.66621 190.568 9.50575C190.992 9.3453 191.377 9.09512 191.696 8.77229C192.014 8.44947 192.26 8.06163 192.415 7.63529C192.57 7.20894 192.631 6.75415 192.594 6.30199C192.594 3.82199 191.06 2.87099 189.112 2.87099C188.398 2.85295 187.685 2.93473 186.994 3.11398L186.995 9.70198Z" fill="white"/>
<path d="M199.525 2.50909C199.525 3.32409 199.066 4.03209 198.302 4.03209C197.594 4.03209 197.141 3.32409 197.141 2.50909C197.141 1.69409 197.617 0.986084 198.341 0.986084C199.065 0.986084 199.502 1.66509 199.525 2.50909ZM197.39 19.4961V6.31909H199.275V19.4961H197.39Z" fill="white"/>
<path d="M202.305 16.9701C203.071 17.5951 204.017 17.9582 205.005 18.0061C205.279 18.0392 205.557 18.0115 205.818 17.925C206.08 17.8384 206.32 17.6951 206.52 17.5054C206.72 17.3156 206.876 17.084 206.976 16.827C207.076 16.5701 207.119 16.2942 207.1 16.0191C207.1 14.8191 206.5 14.2471 205.045 13.6751C203.075 12.8821 202.163 11.5521 202.163 9.94406C202.126 9.43589 202.194 8.92547 202.364 8.44522C202.535 7.96496 202.803 7.52536 203.152 7.15431C203.501 6.78326 203.924 6.48887 204.393 6.28982C204.862 6.09078 205.367 5.99141 205.877 5.99806C206.842 5.98341 207.784 6.2902 208.555 6.87007L208.096 8.66507C207.447 8.13071 206.636 7.83305 205.796 7.82107C205.553 7.80951 205.31 7.85002 205.084 7.93989C204.858 8.02977 204.654 8.16694 204.485 8.34221C204.316 8.51747 204.186 8.72679 204.105 8.95614C204.024 9.1855 203.992 9.42959 204.013 9.67207C204.013 10.8161 204.721 11.3081 206.131 11.9031C208.062 12.6961 208.951 13.8391 208.951 15.8491C208.985 16.3803 208.905 16.9127 208.717 17.4107C208.529 17.9087 208.237 18.3609 207.86 18.7371C207.484 19.1133 207.031 19.4048 206.533 19.5922C206.035 19.7797 205.502 19.8587 204.971 19.8241C203.857 19.8256 202.77 19.4838 201.857 18.8451L202.316 16.9651L202.305 16.9701Z" fill="white"/>
<path d="M213.425 12.338H213.465C213.714 11.902 214.127 11.274 214.439 10.838L217.717 6.32001H220.084L215.792 11.71L220.729 19.501H218.345L214.467 13.131L213.431 14.546V19.5H211.545V0H213.43V12.337L213.425 12.338Z" fill="white"/>
<path d="M103.862 36.157C103.754 33.366 103.607 29.857 103.607 27.364H103.562C103.007 29.685 102.339 32.216 101.524 35.07L98.716 44.803H97.17L94.594 35.189C93.841 32.307 93.241 29.72 92.794 27.364H92.748C92.686 29.864 92.578 33.332 92.425 36.364L91.995 44.919H90.132L91.185 25.094H93.778L96.478 34.855C97.123 37.239 97.639 39.503 98.046 41.502H98.108C98.516 39.56 99.076 37.295 99.784 34.855L102.677 25.094H105.232L106.155 44.916H104.224L103.862 36.152V36.157Z" fill="white"/>
<path d="M115.791 44.922L115.621 43.042H115.559C115.222 43.6962 114.716 44.2484 114.094 44.6415C113.472 45.0346 112.756 45.2543 112.02 45.278C109.682 45.278 108.612 43.104 108.612 41.19C108.612 37.782 110.905 35.777 115.457 35.84V35.607C115.457 34.695 115.264 32.283 112.864 32.307C111.75 32.3097 110.675 32.7182 109.841 33.456L109.388 31.69C110.44 30.8096 111.77 30.3303 113.142 30.337C116.681 30.337 117.411 33.689 117.411 36.423V41.451C117.399 42.6103 117.456 43.7694 117.581 44.922H115.797H115.791ZM115.491 37.686C113.045 37.595 110.599 38.213 110.599 40.834C110.599 42.482 111.46 43.303 112.53 43.303C113.208 43.2534 113.852 42.9863 114.366 42.5415C114.88 42.0967 115.237 41.4979 115.384 40.834C115.448 40.5743 115.484 40.3084 115.492 40.041L115.491 37.686Z" fill="white"/>
<path d="M120.853 34.5999C120.853 33.1899 120.808 31.8939 120.768 30.6879H122.506L122.614 33.2469H122.676C122.935 32.4357 123.435 31.7226 124.11 31.2027C124.785 30.6829 125.601 30.3809 126.452 30.3369C127.867 30.3369 130.483 31.4239 130.483 36.8079V44.9269H128.53V37.0459C128.53 34.5459 127.76 32.5459 125.807 32.5459C124.392 32.5459 123.316 33.8989 122.931 35.3089C122.839 35.6947 122.796 36.0904 122.801 36.4869V44.9289H120.847V34.6069L120.853 34.5999Z" fill="white"/>
<path d="M140.267 44.922L140.097 43.042H140.035C139.698 43.6962 139.192 44.2485 138.57 44.6416C137.948 45.0347 137.232 45.2544 136.496 45.278C134.158 45.278 133.088 43.104 133.088 41.19C133.088 37.782 135.381 35.777 139.933 35.84V35.607C139.933 34.695 139.74 32.283 137.34 32.307C136.226 32.3097 135.151 32.7182 134.317 33.456L133.864 31.69C134.916 30.8096 136.246 30.3303 137.618 30.337C141.157 30.337 141.887 33.689 141.887 36.423V41.451C141.875 42.6103 141.932 43.7694 142.057 44.922H140.273H140.267ZM139.967 37.686C137.521 37.595 135.075 38.213 135.075 40.834C135.075 42.482 135.936 43.303 137.006 43.303C137.684 43.2534 138.328 42.9863 138.842 42.5415C139.356 42.0967 139.713 41.4979 139.86 40.834C139.924 40.5743 139.96 40.3084 139.968 40.041L139.967 37.686Z" fill="white"/>
<path d="M155.135 30.6881C155.09 31.7181 155.05 32.8341 155.05 34.4251V42.7761C155.05 45.9241 154.512 48.0701 153.419 49.3951C152.91 49.9801 152.275 50.4427 151.563 50.7485C150.85 51.0542 150.078 51.1953 149.303 51.1611C147.899 51.1939 146.53 50.724 145.442 49.8361L145.957 47.7751C146.908 48.6053 148.126 49.0666 149.388 49.0751C151.511 49.0751 153.119 47.6031 153.119 43.9001V42.2521H153.074C152.784 43.0103 152.273 43.6645 151.609 44.1307C150.944 44.5968 150.155 44.8536 149.343 44.8681C146.512 44.8681 144.474 41.8111 144.474 37.9271C144.474 33.2501 146.943 30.3401 149.621 30.3401C150.436 30.3448 151.229 30.606 151.888 31.0866C152.546 31.5673 153.037 32.243 153.29 33.0181H153.335L153.42 30.6971H155.136L155.135 30.6881ZM153.097 36.5421C153.109 36.1372 153.073 35.7324 152.989 35.3361C152.581 33.6361 151.489 32.3971 149.966 32.3971C147.95 32.3971 146.45 34.4241 146.45 37.7811C146.45 40.2811 147.565 42.8711 149.926 42.8711C151.319 42.8711 152.519 41.6081 152.949 39.9891C153.045 39.5251 153.096 39.0529 153.102 38.5791V36.5521L153.097 36.5421Z" fill="white"/>
<path d="M159.637 38.3649C159.682 41.5649 161.415 43.1889 163.561 43.1889C164.7 43.2303 165.829 42.9559 166.822 42.3959L167.167 44.3099C165.989 44.9699 164.656 45.304 163.306 45.2779C159.898 45.2779 157.774 42.3389 157.774 38.0709C157.774 33.8029 159.767 30.3369 163.113 30.3369C166.913 30.3369 167.813 34.7479 167.813 37.1879C167.826 37.5825 167.798 37.9774 167.728 38.3659H159.643L159.637 38.3649ZM165.922 36.4509C165.922 35.2169 165.514 32.2159 162.961 32.2159C160.753 32.2159 159.83 34.6849 159.661 36.4509H165.922Z" fill="white"/>
<path d="M170.513 34.601C170.513 33.191 170.468 31.895 170.428 30.689H172.118L172.226 33.158H172.271C172.894 31.748 173.924 30.333 175.878 30.333C177.424 30.333 178.578 31.686 179.054 33.419H179.099C179.369 32.7029 179.786 32.051 180.322 31.505C180.629 31.126 181.018 30.8226 181.461 30.6183C181.904 30.414 182.388 30.3144 182.875 30.327C184.245 30.327 186.606 31.505 186.606 36.883V44.911H184.698V37.149C184.698 34.092 183.775 32.535 182.19 32.535C180.967 32.535 180.067 33.713 179.704 34.919C179.581 35.3502 179.517 35.7958 179.512 36.244V44.916H177.604V36.65C177.604 34.15 176.704 32.534 175.22 32.534C173.867 32.534 172.944 33.972 172.582 35.212C172.477 35.6371 172.427 36.0741 172.435 36.512V44.916H170.527V34.595L170.513 34.601Z" fill="white"/>
<path d="M191.111 38.3649C191.156 41.5649 192.889 43.1889 195.035 43.1889C196.174 43.2303 197.303 42.9559 198.296 42.3959L198.641 44.3099C197.463 44.9699 196.13 45.304 194.78 45.2779C191.372 45.2779 189.248 42.3389 189.248 38.0709C189.248 33.8029 191.241 30.3369 194.587 30.3369C198.387 30.3369 199.287 34.7479 199.287 37.1879C199.3 37.5825 199.272 37.9774 199.202 38.3659H191.117L191.111 38.3649ZM197.396 36.4509C197.396 35.2169 196.988 32.2159 194.435 32.2159C192.227 32.2159 191.304 34.6849 191.135 36.4509H197.396Z" fill="white"/>
<path d="M201.987 34.5999C201.987 33.1899 201.942 31.8939 201.902 30.6879H203.64L203.748 33.2469H203.81C204.069 32.4357 204.569 31.7226 205.244 31.2027C205.919 30.6829 206.735 30.3809 207.586 30.3369C209.001 30.3369 211.617 31.4239 211.617 36.8079V44.9269H209.664V37.0459C209.664 34.5459 208.894 32.5459 206.941 32.5459C205.526 32.5459 204.45 33.8989 204.065 35.3089C203.973 35.6947 203.93 36.0904 203.935 36.4869V44.9289H201.982V34.6069L201.987 34.5999Z" fill="white"/>
<path d="M217.387 26.509V30.687H220.325V32.748H217.387V40.131C217.387 41.898 217.71 43.069 218.933 43.069C219.353 43.079 219.77 42.9978 220.156 42.831L220.264 44.858C219.694 45.1503 219.058 45.2925 218.418 45.271C217.983 45.2805 217.553 45.1769 217.17 44.9704C216.787 44.7639 216.464 44.4616 216.233 44.093C215.649 42.9284 215.388 41.6279 215.48 40.328V32.739H213.741V30.678H215.479V27.178L217.387 26.509Z" fill="white"/>
<path d="M124.024 69.948V72.264H118.458V69.948H124.024Z" fill="white"/>
<path d="M89.498 76.1929C90.2759 76.7884 91.2191 77.1286 92.198 77.1669C92.4261 77.1889 92.6563 77.1603 92.8721 77.0831C93.0878 77.0059 93.2839 76.882 93.4463 76.7203C93.6087 76.5586 93.7334 76.363 93.8114 76.1476C93.8895 75.9321 93.9191 75.7021 93.898 75.4739C93.898 74.4549 93.388 73.9399 92.098 73.2659C91.2009 72.8789 90.4403 72.2318 89.9144 71.4083C89.3886 70.5848 89.1216 69.6226 89.148 68.6459C89.148 65.9789 90.677 63.9349 93.213 63.9349C94.1841 63.9204 95.1376 64.1943 95.953 64.7219L95.41 67.5759C94.756 67.1008 93.9703 66.8415 93.162 66.8339C92.9566 66.8158 92.7496 66.8421 92.5553 66.911C92.3609 66.9798 92.1836 67.0897 92.0353 67.2331C91.8871 67.3765 91.7714 67.55 91.6962 67.742C91.6209 67.934 91.5877 68.14 91.599 68.3459C91.599 69.3459 92.205 69.7839 93.592 70.5539C94.4719 70.9612 95.2088 71.6241 95.7066 72.4561C96.2045 73.2882 96.4402 74.2509 96.383 75.2189C96.383 77.8399 94.996 80.0709 92.046 80.0709C90.9569 80.0752 89.8931 79.7431 89 79.1199L89.493 76.1929H89.498Z" fill="white"/>
<path d="M101.558 64.1899V73.1979C101.558 75.8979 102.258 77.2579 103.506 77.2579C104.754 77.2579 105.482 75.9579 105.482 73.1979V64.1899H107.905V72.9699C107.905 77.7999 106.229 80.0979 103.421 80.0979C100.613 80.0979 99.121 77.9179 99.121 72.924V64.1899H101.558Z" fill="white"/>
<path d="M111.104 64.1899H113.544V76.8699H117.819V79.8419H111.104V64.196V64.1899Z" fill="white"/>
<path d="M128.61 75.8868L127.829 79.8278H125.253L128.616 64.4668H131.877L135.285 79.8278H132.608L131.759 75.8868H128.61ZM131.401 73.2868L130.716 70.0258C130.516 69.1148 130.325 67.9758 130.161 67.0648H130.127C129.963 67.9768 129.799 69.1368 129.627 70.0258L128.976 73.2868H131.401Z" fill="white"/>
<path d="M146.893 73.9509C146.842 72.1049 146.793 69.8689 146.793 67.6379H146.742C146.397 69.5969 145.942 71.7879 145.519 73.5889L144.183 79.5889H142.244L141.071 73.6339C140.714 71.8339 140.335 69.6479 140.071 67.6339H140.037C139.969 69.7059 139.924 72.0779 139.837 73.9919L139.637 79.8239H137.337L138.037 64.4629H141.349L142.425 69.5929C142.77 71.3709 143.11 73.2839 143.354 75.0849H143.405C143.716 73.3069 144.09 71.2849 144.447 69.5699L145.625 64.4629H148.875L149.481 79.8239H147.057L146.893 73.9409V73.9509Z" fill="white"/>
<path d="M158.777 73.3328H154.729V76.9788H159.247V79.8268H152.232V64.4668H159.021V67.3148H154.729V70.5078H158.777V73.3328Z" fill="white"/>
<path d="M161.783 64.677C162.873 64.4557 163.983 64.3494 165.095 64.3599C165.74 64.2904 166.392 64.3623 167.006 64.5706C167.62 64.7789 168.182 65.1186 168.651 65.566C169.375 66.4755 169.736 67.6215 169.664 68.7819C169.709 69.5286 169.553 70.2737 169.211 70.9392C168.87 71.6046 168.355 72.1658 167.722 72.564V72.6319C168.486 73.0619 168.911 74.0929 169.188 75.5029C169.533 77.235 169.873 79.2399 170.083 79.8339H167.535C167.191 78.6621 166.936 77.466 166.771 76.2559C166.477 74.3419 166.007 73.816 164.993 73.793H164.24V79.8339H161.777V64.677H161.783ZM164.247 71.284H165.226C165.508 71.2905 165.787 71.236 166.046 71.124C166.304 71.0121 166.535 70.8454 166.723 70.6355C166.911 70.4257 167.051 70.1776 167.134 69.9083C167.216 69.6391 167.24 69.3551 167.202 69.0759C167.202 67.6609 166.517 66.959 165.373 66.936C164.994 66.9263 164.615 66.9642 164.246 67.049V71.29L164.247 71.284Z" fill="white"/>
<path d="M174.791 64.4729V79.8339H172.291V64.4729H174.791Z" fill="white"/>
<path d="M185.857 79.3979C184.994 79.8732 184.017 80.1022 183.032 80.0599C179.232 80.0599 177.274 76.7529 177.274 72.3829C177.274 67.1399 179.952 64.2239 183.281 64.2239C184.23 64.1836 185.171 64.4217 185.987 64.9089L185.487 67.6659C184.855 67.2914 184.133 67.0938 183.398 67.0939C181.422 67.0939 179.888 68.7589 179.888 72.1779C179.888 75.2519 181.196 77.1939 183.415 77.1939C184.135 77.1917 184.845 77.0205 185.487 76.6939L185.861 79.4059L185.857 79.3979Z" fill="white"/>
<path d="M191.049 75.8868L190.268 79.8278H187.692L191.055 64.4668H194.316L197.724 79.8278H195.046L194.197 75.8868H191.049ZM193.84 73.2868L193.155 70.0258C192.955 69.1148 192.764 67.9758 192.6 67.0648H192.566C192.402 67.9768 192.238 69.1368 192.066 70.0258L191.415 73.2868H193.84Z" fill="white"/>
<path d="M200.023 79.8339V64.4729H202.923L205.21 70.1009C205.899 71.8237 206.498 73.5811 207.005 75.3659H207.056C206.892 73.3389 206.846 71.2659 206.846 68.9659V64.4759H209.143V79.8369H206.533L204.183 73.9089C203.532 72.2669 202.813 70.2849 202.275 68.4849L202.224 68.5079C202.292 70.5349 202.324 72.7079 202.324 75.2079V79.8339H200.037H200.023Z" fill="white"/>
<path d="M214.684 75.8868L213.903 79.8278H211.324L214.684 64.4668H217.945L221.353 79.8278H218.675L217.826 75.8868H214.684ZM217.475 73.2868L216.79 70.0258C216.59 69.1148 216.399 67.9758 216.235 67.0648H216.201C216.037 67.9768 215.873 69.1368 215.701 70.0258L215.05 73.2868H217.475Z" fill="white"/>
<path d="M93.547 13.6792L92.109 19.4601H90.342L95.042 1.34814H97.082L101.815 19.4601H99.995L98.5 13.6792H93.547ZM98.133 11.7991L96.695 6.36916C96.401 5.21416 96.214 4.27415 96.016 3.35715H95.976C95.789 4.29715 95.591 5.26515 95.331 6.31215L93.91 11.7932H98.128L98.133 11.7991Z" fill="white"/>
<path d="M112.678 0.216064V16.0161C112.678 17.2791 112.695 18.5161 112.752 19.4581H111.24L111.149 17.0121H111.115C110.921 17.7793 110.485 18.4636 109.872 18.9634C109.258 19.4631 108.5 19.7516 107.709 19.7861C105.354 19.7861 103.491 17.0171 103.491 13.2011C103.474 8.95506 105.478 6.13507 107.93 6.13507C108.591 6.1437 109.234 6.3507 109.776 6.72923C110.318 7.10777 110.734 7.6404 110.97 8.25807H111.004V0.224075H112.68L112.678 0.216064ZM111.002 11.8791C110.999 11.5189 110.968 11.1594 110.909 10.8041C110.615 9.27006 109.618 8.00407 108.22 8.00407C106.38 8.00407 105.18 10.0761 105.18 13.0321C105.18 15.6321 106.21 17.8161 108.198 17.8161C109.506 17.8161 110.61 16.4971 110.904 14.7811C110.965 14.4256 110.995 14.0657 110.995 13.7051V11.8761L111.002 11.8791Z" fill="white"/>
<path d="M116.986 6.44995L118.939 13.7309C119.29 15.0499 119.545 16.0979 119.788 17.1729H119.822C120.06 16.0969 120.354 15.0219 120.688 13.7309L122.658 6.44995H124.447L120.54 19.461H118.9L115.163 6.44995H116.986Z" fill="white"/>
<path d="M127.563 13.4642C127.603 16.3912 129.092 17.8752 130.932 17.8752C131.916 17.9109 132.889 17.659 133.732 17.1502L134.026 18.9002C133.025 19.5011 131.875 19.8092 130.708 19.7892C127.781 19.7892 125.958 17.1002 125.958 13.2042C125.958 9.30818 127.674 6.13818 130.544 6.13818C133.805 6.13818 134.575 10.1692 134.575 12.4002C134.588 12.7604 134.563 13.121 134.501 13.4762H127.557L127.563 13.4642ZM132.963 11.7142C132.963 10.5872 132.612 7.84119 130.421 7.84119C128.521 7.84119 127.732 10.1002 127.584 11.7142H132.963Z" fill="white"/>
<path d="M137.545 10.0281C137.545 8.73708 137.511 7.55408 137.471 6.45508H138.966L139.057 8.79308H139.114C139.315 8.06944 139.734 7.42548 140.315 6.94919C140.896 6.4729 141.609 6.18753 142.358 6.13208C143.575 6.13208 145.823 7.13208 145.823 12.0431V19.4601H144.146V12.2601C144.146 9.97809 143.484 8.15009 141.808 8.15009C140.591 8.15009 139.673 9.38408 139.339 10.6751C139.259 11.0281 139.221 11.3892 139.226 11.7511V19.4621H137.55V10.0291L137.545 10.0281Z" fill="white"/>
<path d="M151.41 2.63403V6.45003H153.935V8.33003H151.41V15.079C151.41 16.693 151.687 17.768 152.735 17.768C153.096 17.7766 153.454 17.7031 153.782 17.553L153.873 19.41C153.387 19.6737 152.84 19.8028 152.288 19.784C151.907 19.7882 151.532 19.6906 151.202 19.5015C150.871 19.3123 150.597 19.0384 150.408 18.708C149.907 17.6333 149.685 16.4494 149.763 15.266V8.33403H148.268V6.45404H149.763V3.25403L151.405 2.63704L151.41 2.63403Z" fill="white"/>
<path d="M158.647 2.69008C158.647 3.49008 158.239 4.19608 157.56 4.19608C156.932 4.19608 156.53 3.49608 156.53 2.69008C156.53 1.88408 156.955 1.18408 157.6 1.18408C158.245 1.18408 158.63 1.85808 158.647 2.69008ZM156.747 19.4601V6.45007H158.423V19.4611L156.747 19.4601Z" fill="white"/>
<path d="M161.891 16.957C162.549 17.5617 163.394 17.9215 164.286 17.976C164.544 17.9926 164.802 17.9523 165.043 17.8579C165.283 17.7636 165.5 17.6175 165.678 17.43C165.856 17.2425 165.99 17.0182 166.071 16.773C166.153 16.5277 166.179 16.2676 166.149 16.011C166.149 14.828 165.617 14.262 164.326 13.701C163.571 13.4277 162.92 12.927 162.461 12.2679C162.003 11.6088 161.76 10.8238 161.767 10.021C161.767 7.92603 162.962 6.12104 165.067 6.12104C165.937 6.11217 166.782 6.41791 167.445 6.98203L167.037 8.75403C166.48 8.2364 165.753 7.94045 164.993 7.92203C164.764 7.92474 164.539 7.97591 164.331 8.07213C164.124 8.16836 163.939 8.30746 163.789 8.48029C163.64 8.65312 163.528 8.85573 163.462 9.07477C163.397 9.29381 163.378 9.5243 163.408 9.75104C163.408 10.878 164.036 11.365 165.288 11.951C166.076 12.2346 166.749 12.7707 167.201 13.476C167.653 14.1813 167.859 15.0163 167.788 15.851C167.788 18.025 166.554 19.775 164.249 19.775C163.245 19.7716 162.272 19.4307 161.486 18.807L161.894 16.95L161.891 16.957Z" fill="white"/>
<path d="M172.863 2.63403V6.45003H175.388V8.33003H172.863V15.079C172.863 16.693 173.14 17.768 174.188 17.768C174.549 17.7766 174.907 17.7031 175.235 17.553L175.326 19.41C174.84 19.6737 174.293 19.8028 173.741 19.784C173.36 19.7882 172.985 19.6906 172.655 19.5015C172.324 19.3123 172.05 19.0384 171.861 18.708C171.36 17.6333 171.138 16.4494 171.216 15.266V8.33403H169.726V6.45404H171.215V3.25403L172.856 2.63403H172.863Z" fill="white"/>
<path opacity="0.5" d="M89.828 55.9871H221.182" stroke="#003C71" stroke-width="0.4"/>
<path d="M224.697 27.7193C225.505 27.7115 226.282 28.0249 226.859 28.5905C227.436 29.1561 227.764 29.9276 227.772 30.7353C227.764 31.5429 227.436 32.3144 226.859 32.88C226.282 33.4456 225.505 33.759 224.697 33.7513C224.297 33.7552 223.9 33.6803 223.529 33.5309C223.158 33.3815 222.82 33.1604 222.534 32.8804C222.249 32.6003 222.021 32.2667 221.864 31.8986C221.708 31.5306 221.625 31.1353 221.621 30.7353C221.625 30.3352 221.708 29.9399 221.864 29.5719C222.021 29.2038 222.249 28.8702 222.534 28.5901C222.82 28.3101 223.158 28.089 223.529 27.9396C223.9 27.7902 224.297 27.7153 224.697 27.7193ZM224.697 34.1823C225.62 34.191 226.509 33.8328 227.168 33.1864C227.827 32.54 228.202 31.6583 228.211 30.7353C228.202 29.8122 227.827 28.9305 227.168 28.2841C226.509 27.6377 225.62 27.2795 224.697 27.2883C224.24 27.2838 223.786 27.3694 223.362 27.5402C222.938 27.711 222.552 27.9636 222.226 28.2837C221.899 28.6038 221.639 28.9851 221.46 29.4057C221.281 29.8263 221.186 30.2781 221.182 30.7353C221.186 31.1924 221.281 31.6442 221.46 32.0648C221.639 32.4854 221.899 32.8667 222.226 33.1868C222.552 33.5069 222.938 33.7595 223.362 33.9303C223.786 34.1011 224.24 34.1867 224.697 34.1823ZM223.382 29.0113V32.4583H223.821V31.1663H224.796L225.599 32.4583H226.114L225.272 31.1083C225.52 31.0304 225.731 30.8654 225.867 30.6438C226.002 30.4223 226.053 30.1591 226.01 29.9031C225.966 29.647 225.831 29.4153 225.63 29.2508C225.429 29.0863 225.176 29.0001 224.916 29.0083H223.382V29.0113ZM223.821 30.7343V29.4423H224.921C225.092 29.4423 225.257 29.5104 225.378 29.6316C225.499 29.7529 225.568 29.9173 225.568 30.0888C225.568 30.2602 225.499 30.4247 225.378 30.5459C225.257 30.6671 225.092 30.7353 224.921 30.7353L223.821 30.7343Z" fill="white"/>
<path d="M40.8542 71.9849C40.8542 71.9849 48.5262 66.9739 38.3632 57.8129C28.2002 48.6519 7.28016 35.6359 2.89716 29.9439C-1.48584 24.2519 0.406162 15.7739 0.406162 15.7739C0.406162 15.7739 0.306156 23.2929 16.4462 35.8279C32.5862 48.3629 44.2402 56.4599 44.8402 64.1769C45.4402 71.8939 40.8542 71.9849 40.8542 71.9849Z" fill="white"/>
<path d="M46.9751 68.157C46.9751 68.157 52.1561 61.793 41.9931 52.632C31.8301 43.471 11.8091 29.3 7.32514 24.476C2.84114 19.652 4.61915 8.79297 4.61915 8.79297C4.61915 8.79297 4.34514 16.957 20.1771 30.07C36.0091 43.183 48.7691 52.151 49.3691 59.863C49.9691 67.575 46.9801 68.152 46.9801 68.152L46.9751 68.157Z" fill="white"/>
<path d="M51.3631 61.986C51.3631 61.986 53.5541 56.103 47.6771 49.066C41.8001 42.029 18.5191 25.9 13.3041 20.525C8.08914 15.15 10.0111 5 10.0111 5C10.0111 5 11.5111 13.776 25.6591 25.247C39.8071 36.718 50.6671 47.136 52.2591 53.788C53.8511 60.44 51.3641 61.988 51.3641 61.988L51.3631 61.986Z" fill="white"/>
<path d="M5.12915 33.7339C5.12915 33.7339 -3.23885 52.3899 7.83815 64.5399C18.9152 76.6899 30.4742 69.7319 30.4742 69.7319L38.9042 73.3839C34.3287 74.7893 29.5399 75.3704 24.7612 75.0999C17.4912 74.5219 8.08116 70.2529 3.77316 62.1999C-4.02584 47.6219 5.12915 33.7339 5.12915 33.7339Z" fill="white"/>
<line x1="71.5" y1="0.5" x2="71.5" y2="79.5" stroke="#F57A16" stroke-linecap="round"/>
</svg>
