<svg width="37" height="50" viewBox="0 0 37 50" fill="none" xmlns="http://www.w3.org/2000/svg">
<path d="M28.6267 46.9366C28.6267 46.9366 34.0025 43.4253 26.8812 37.0062C19.76 30.587 5.10123 21.4667 2.03005 17.4783C-1.04113 13.4899 0.284599 7.54932 0.284599 7.54932C0.284599 7.54932 0.214525 12.8179 11.5239 21.6012C22.8332 30.3845 30.9992 36.0581 31.4197 41.4655C31.8401 46.8728 28.6267 46.9366 28.6267 46.9366Z" fill="white"/>
<path d="M32.9159 44.2543C32.9159 44.2543 36.5462 39.795 29.425 33.3759C22.3037 26.9567 8.27493 17.027 5.13298 13.6468C1.99102 10.2667 3.23688 2.65771 3.23688 2.65771C3.23688 2.65771 3.04488 8.37826 14.1384 17.5666C25.232 26.7549 34.1729 33.0388 34.5934 38.4426C35.0138 43.8465 32.9194 44.2508 32.9194 44.2508L32.9159 44.2543Z" fill="white"/>
<path d="M35.9904 39.9303C35.9904 39.9303 37.5257 35.8081 33.4077 30.8772C29.2896 25.9464 12.9765 14.6447 9.32237 10.8784C5.6682 7.11214 7.01495 0 7.01495 0C7.01495 0 8.06601 6.14937 17.9796 14.1871C27.8931 22.2249 35.5028 29.5248 36.6183 34.1859C37.7338 38.847 35.9911 39.9317 35.9911 39.9317L35.9904 39.9303Z" fill="white"/>
<path d="M3.59389 20.134C3.59389 20.134 -2.2696 33.2064 5.49209 41.7199C13.2538 50.2335 21.3532 45.358 21.3532 45.358L27.2602 47.9169C24.0541 48.9017 20.6986 49.3089 17.3501 49.1193C12.256 48.7143 5.66237 45.723 2.64374 40.0803C-2.82105 29.8654 3.59389 20.134 3.59389 20.134Z" fill="white"/>
</svg>
