<svg width="28" height="43" viewBox="0 0 28 43" fill="none" xmlns="http://www.w3.org/2000/svg">
<path d="M0.786133 41V33.8418H3.95996C4.59798 33.8418 5.08301 33.9069 5.41504 34.0371C5.74707 34.1641 6.01237 34.3903 6.21094 34.7158C6.40951 35.0413 6.50879 35.401 6.50879 35.7949C6.50879 36.3027 6.3444 36.7308 6.01562 37.0791C5.68685 37.4274 5.17904 37.6488 4.49219 37.7432C4.74284 37.8636 4.93327 37.9824 5.06348 38.0996C5.34017 38.3535 5.60221 38.6709 5.84961 39.0518L7.09473 41H5.90332L4.95605 39.5107C4.67936 39.0811 4.4515 38.7523 4.27246 38.5244C4.09342 38.2965 3.93229 38.137 3.78906 38.0459C3.64909 37.9548 3.50586 37.8913 3.35938 37.8555C3.25195 37.8327 3.07617 37.8213 2.83203 37.8213H1.7334V41H0.786133ZM1.7334 37.001H3.76953C4.20247 37.001 4.54102 36.957 4.78516 36.8691C5.0293 36.778 5.21484 36.6348 5.3418 36.4395C5.46875 36.2409 5.53223 36.026 5.53223 35.7949C5.53223 35.4564 5.40853 35.1781 5.16113 34.96C4.91699 34.7419 4.52962 34.6328 3.99902 34.6328H1.7334V37.001ZM7.55859 38.4072C7.55859 37.4469 7.82552 36.7357 8.35938 36.2734C8.80534 35.8893 9.34896 35.6973 9.99023 35.6973C10.7031 35.6973 11.2858 35.9316 11.7383 36.4004C12.1908 36.8659 12.417 37.5104 12.417 38.334C12.417 39.0013 12.3161 39.527 12.1143 39.9111C11.9157 40.292 11.6243 40.5882 11.2402 40.7998C10.8594 41.0114 10.4427 41.1172 9.99023 41.1172C9.26432 41.1172 8.67676 40.8844 8.22754 40.4189C7.78158 39.9535 7.55859 39.2829 7.55859 38.4072ZM8.46191 38.4072C8.46191 39.0713 8.60677 39.5693 8.89648 39.9014C9.1862 40.2301 9.55078 40.3945 9.99023 40.3945C10.4264 40.3945 10.7894 40.2285 11.0791 39.8965C11.3688 39.5645 11.5137 39.0583 11.5137 38.3779C11.5137 37.7367 11.3672 37.2516 11.0742 36.9229C10.7845 36.5908 10.4232 36.4248 9.99023 36.4248C9.55078 36.4248 9.1862 36.5892 8.89648 36.918C8.60677 37.2467 8.46191 37.7432 8.46191 38.4072ZM15.3711 40.2139L15.498 40.9902C15.2507 41.0423 15.0293 41.0684 14.834 41.0684C14.515 41.0684 14.2676 41.0179 14.0918 40.917C13.916 40.8161 13.7923 40.6842 13.7207 40.5215C13.6491 40.3555 13.6133 40.0088 13.6133 39.4814V36.498H12.9688V35.8145H13.6133V34.5303L14.4873 34.0029V35.8145H15.3711V36.498H14.4873V39.5303C14.4873 39.7809 14.502 39.9421 14.5312 40.0137C14.5638 40.0853 14.6143 40.1423 14.6826 40.1846C14.7542 40.2269 14.8551 40.248 14.9854 40.248C15.083 40.248 15.2116 40.2367 15.3711 40.2139ZM19.6191 40.3604C19.2936 40.637 18.9795 40.8324 18.6768 40.9463C18.3773 41.0602 18.055 41.1172 17.71 41.1172C17.1403 41.1172 16.7025 40.9788 16.3965 40.7021C16.0905 40.4222 15.9375 40.0658 15.9375 39.6328C15.9375 39.3789 15.9945 39.1478 16.1084 38.9395C16.2256 38.7279 16.377 38.5586 16.5625 38.4316C16.7513 38.3047 16.9629 38.2087 17.1973 38.1436C17.3698 38.098 17.6302 38.054 17.9785 38.0117C18.6882 37.9271 19.2106 37.8262 19.5459 37.709C19.5492 37.5885 19.5508 37.512 19.5508 37.4795C19.5508 37.1214 19.4678 36.8691 19.3018 36.7227C19.0771 36.5241 18.7435 36.4248 18.3008 36.4248C17.8874 36.4248 17.5814 36.498 17.3828 36.6445C17.1875 36.7878 17.0426 37.0433 16.9482 37.4111L16.0889 37.2939C16.167 36.9261 16.2956 36.6299 16.4746 36.4053C16.6536 36.1774 16.9124 36.0033 17.251 35.8828C17.5895 35.7591 17.9818 35.6973 18.4277 35.6973C18.8704 35.6973 19.2301 35.7493 19.5068 35.8535C19.7835 35.9577 19.987 36.0895 20.1172 36.249C20.2474 36.4053 20.3385 36.6038 20.3906 36.8447C20.4199 36.9945 20.4346 37.2646 20.4346 37.6553V38.8271C20.4346 39.6442 20.4525 40.1618 20.4883 40.3799C20.5273 40.5947 20.6022 40.8014 20.7129 41H19.7949C19.7038 40.8177 19.6452 40.6045 19.6191 40.3604ZM19.5459 38.3975C19.2269 38.5277 18.7484 38.6383 18.1104 38.7295C17.749 38.7816 17.4935 38.8402 17.3438 38.9053C17.194 38.9704 17.0785 39.0664 16.9971 39.1934C16.9157 39.3171 16.875 39.4554 16.875 39.6084C16.875 39.8428 16.9629 40.0381 17.1387 40.1943C17.3177 40.3506 17.5781 40.4287 17.9199 40.4287C18.2585 40.4287 18.5596 40.3555 18.8232 40.209C19.0869 40.0592 19.2806 39.8558 19.4043 39.5986C19.4987 39.4001 19.5459 39.1071 19.5459 38.7197V38.3975ZM21.4502 39.4521L22.3193 39.3154C22.3682 39.6637 22.5033 39.9307 22.7246 40.1162C22.9492 40.3018 23.2617 40.3945 23.6621 40.3945C24.0658 40.3945 24.3652 40.3132 24.5605 40.1504C24.7559 39.9844 24.8535 39.7907 24.8535 39.5693C24.8535 39.3708 24.7673 39.2145 24.5947 39.1006C24.4743 39.0225 24.1748 38.9232 23.6963 38.8027C23.0518 38.64 22.6042 38.5 22.3535 38.3828C22.1061 38.2624 21.9173 38.098 21.7871 37.8896C21.6602 37.6781 21.5967 37.4453 21.5967 37.1914C21.5967 36.9603 21.6488 36.7471 21.7529 36.5518C21.8604 36.3532 22.0052 36.1888 22.1875 36.0586C22.3242 35.9577 22.5098 35.873 22.7441 35.8047C22.9818 35.7331 23.2357 35.6973 23.5059 35.6973C23.9128 35.6973 24.2692 35.7559 24.5752 35.873C24.8844 35.9902 25.1123 36.1497 25.2588 36.3516C25.4053 36.5501 25.5062 36.8171 25.5615 37.1523L24.7021 37.2695C24.6631 37.0026 24.5492 36.7943 24.3604 36.6445C24.1748 36.4948 23.9111 36.4199 23.5693 36.4199C23.1657 36.4199 22.8776 36.4867 22.7051 36.6201C22.5326 36.7536 22.4463 36.9098 22.4463 37.0889C22.4463 37.2028 22.4821 37.3053 22.5537 37.3965C22.6253 37.4909 22.7376 37.569 22.8906 37.6309C22.9785 37.6634 23.2373 37.7383 23.667 37.8555C24.2887 38.0215 24.7217 38.1582 24.9658 38.2656C25.2132 38.3698 25.4069 38.5228 25.5469 38.7246C25.6868 38.9264 25.7568 39.1771 25.7568 39.4766C25.7568 39.7695 25.6706 40.0462 25.498 40.3066C25.3288 40.5638 25.083 40.764 24.7607 40.9072C24.4385 41.0472 24.0739 41.1172 23.667 41.1172C22.9932 41.1172 22.4788 40.9772 22.124 40.6973C21.7725 40.4173 21.5479 40.0023 21.4502 39.4521Z" fill="#003C71"/>
<circle cx="14" cy="14" r="13.5" stroke="#003C71"/>
<rect x="7.70711" y="14" width="8.89951" height="8.89951" rx="2.5" transform="rotate(-45 7.70711 14)" stroke="#003C71"/>
<path d="M13.0392 16.0588H11.9412V14.071V14.052C11.9412 13.7488 12.187 13.503 12.4902 13.503H14.9608V11.9412L16.8823 13.929L14.9608 16.0588V14.4969H13.0392V16.0588Z" fill="#003C71"/>
</svg>
